<svg xmlns="http://www.w3.org/2000/svg" viewBox="0 0 24 24"><path d="M 12.001953 3.0019531 C 10.162214 3.0009714 8.4489202 3.4153206 6.9511719 4.1816406 C 6.365878 3.777285 5.7492662 3.4220037 5.1601562 3.1757812 C 3.6693856 2.5546269 2.0012625 3.6847615 2 5.3007812 A 0.50005 0.50005 0 0 0 2 5.3027344 L 2 6.5058594 C 2 7.6198524 2.2086514 8.6978332 2.4785156 9.6796875 C 2.1841844 10.700987 2.0019531 11.814457 2.0019531 13.058594 C 2.0016454 13.876123 2.1122445 14.622495 2.2988281 15.3125 C 1.1233868 15.623006 0.27734375 16.052734 0.27734375 16.052734 A 0.50005 0.50005 0 1 0 0.72265625 16.947266 C 0.72265625 16.947266 1.5658345 16.563151 2.6367188 16.283203 C 2.8829637 16.855253 3.1932891 17.374322 3.5664062 17.837891 C 2.6657191 18.465479 2.109375 19.1875 2.109375 19.1875 A 0.50024408 0.50024408 0 0 0 2.890625 19.8125 C 2.890625 19.8125 3.4725986 19.137089 4.2734375 18.597656 C 4.5015491 18.805456 4.7402954 19.001719 4.9960938 19.179688 C 6.8347875 20.458935 9.3055758 20.997534 11.996094 20.998047 C 14.686568 20.99856 17.160538 20.461615 19 19.183594 C 19.257433 19.004734 19.497143 18.806738 19.726562 18.597656 C 20.527401 19.137089 21.109375 19.8125 21.109375 19.8125 A 0.50024408 0.50024408 0 0 0 21.890625 19.1875 C 21.890625 19.1875 21.334774 18.463669 20.433594 17.835938 C 20.806017 17.372678 21.117396 16.854736 21.363281 16.283203 C 22.434166 16.563151 23.277344 16.947266 23.277344 16.947266 A 0.50005 0.50005 0 1 0 23.722656 16.052734 C 23.722656 16.052734 22.876613 15.623006 21.701172 15.3125 C 21.88727 14.624086 21.99774 13.879715 21.998047 13.064453 C 21.998047 11.815277 21.815868 10.695074 21.519531 9.6699219 C 21.789596 8.6902208 21.998986 7.6155912 22 6.5058594 L 22 5.3027344 C 22 3.6860591 20.332515 2.5559165 18.841797 3.1757812 C 18.250839 3.4220139 17.632499 3.7759311 17.044922 4.1816406 C 15.550278 3.4167302 13.838962 3.0019531 12.001953 3.0019531 z M 12.001953 4.0019531 C 13.800235 4.0019531 15.455009 4.398027 16.841797 5.1640625 A 0.50005 0.50005 0 0 0 17.384766 5.1269531 C 17.955972 4.6978516 18.607593 4.3555607 19.226562 4.0976562 L 19.226562 4.0996094 C 20.087846 3.741477 21 4.3574096 21 5.3027344 L 21 6.5058594 C 20.999056 7.5389185 20.807802 8.5799733 20.539062 9.5253906 A 0.50005 0.50005 0 0 0 20.541016 9.8085938 C 20.832891 10.769785 20.998047 11.849691 20.998047 13.064453 C 20.997761 13.824451 20.899436 14.49859 20.732422 15.111328 C 20.333467 15.047099 19.92168 15 19.5 15 A 0.50005 0.50005 0 1 0 19.5 16 C 19.795598 16 20.092026 16.030955 20.384766 16.072266 C 20.164585 16.542784 19.890885 16.967039 19.564453 17.34375 C 19.261926 17.203462 18.944389 17.080263 18.601562 17.009766 A 0.50005 0.50005 0 0 0 18.501953 16.998047 A 0.50005 0.50005 0 0 0 18.398438 17.990234 C 18.5211 18.015458 18.64145 18.061264 18.761719 18.103516 C 18.651518 18.190923 18.544809 18.28194 18.427734 18.363281 C 16.828696 19.47426 14.553573 19.998534 11.998047 19.998047 C 9.4425185 19.99756 7.1647125 19.471377 5.5664062 18.359375 C 5.4510817 18.279139 5.3469068 18.189635 5.2382812 18.103516 C 5.3585505 18.061264 5.4789003 18.015458 5.6015625 17.990234 A 0.50005 0.50005 0 0 0 5.4824219 17 A 0.50005 0.50005 0 0 0 5.3984375 17.009766 C 5.0556116 17.080257 4.7380738 17.203466 4.4355469 17.34375 C 4.1086411 16.966677 3.8335282 16.543342 3.6132812 16.072266 C 3.9066374 16.030791 4.2037544 16 4.5 16 A 0.50005 0.50005 0 1 0 4.5 15 C 4.0783202 15 3.6665332 15.047099 3.2675781 15.111328 C 3.1001789 14.496836 3.001666 13.821309 3.0019531 13.058594 C 3.0019531 11.84694 3.1660264 10.770102 3.4570312 9.8105469 A 0.50005 0.50005 0 0 0 3.4589844 9.5292969 C 3.1911088 8.582534 3 7.540728 3 6.5058594 L 3 5.3027344 C 3.0007375 4.3587542 3.9141612 3.7407638 4.7753906 4.0996094 C 5.3922652 4.3574362 6.0450642 4.6998618 6.6132812 5.1269531 A 0.50005 0.50005 0 0 0 7.1542969 5.1640625 C 8.5441579 4.3969498 10.201758 4.0009921 12.001953 4.0019531 z M 8.5 11 A 1.5 2 0 0 0 8.5 15 A 1.5 2 0 0 0 8.5 11 z M 15.5 11 A 1.5 2 0 0 0 15.5 15 A 1.5 2 0 0 0 15.5 11 z M 12 15 A 1.5 1 0 0 0 12 17 A 1.5 1 0 0 0 12 15 z"/></svg>